# xmcd
#
# Track frame offsets:
#	150
#	10380
#	20712
#	30687
#	40675
#	50387
#	61047
#	72652
#	79230
#	90182
#	106812
#	117357
#	126152
#	138910
#	150975
#	161727
#	171225
#	183032
#
# Disc length: 2515 seconds
#
# Revision: 0
# Processed by: cddbd v1.5.2PL0 Copyright (c) Steve Scherf et al.
# Submitted via: audiograbber 1.83.01
#
DISCID=e009d112
DTITLE=Disney  - Disney Christmas Songs
DYEAR=1900
DGENRE=
TTITLE0=Song 1
TTITLE1=Song 2
TTITLE2=Song 3
TTITLE3=Song 4
TTITLE4=Song 5
TTITLE5=Song 7
TTITLE6=Song 8
TTITLE7=song 9
TTITLE8=song 10
TTITLE9=song 11
TTITLE10=song 12
TTITLE11=song 13
TTITLE12=song 14
TTITLE13=song 15
TTITLE14=song 16
TTITLE15=song 17
TTITLE16=song 18
TTITLE17=song 19
EXTD=
EXTT0=
EXTT1=
EXTT2=
EXTT3=
EXTT4=
EXTT5=
EXTT6=
EXTT7=
EXTT8=
EXTT9=
EXTT10=
EXTT11=
EXTT12=
EXTT13=
EXTT14=
EXTT15=
EXTT16=
EXTT17=
PLAYORDER=
